<svg xmlns="http://www.w3.org/2000/svg" xml:space="preserve" style="fill-rule:evenodd;clip-rule:evenodd;stroke-linecap:round;stroke-linejoin:round;stroke-miterlimit:1.5" viewBox="0 0 1000 1000"><path d="M525 25.766v-.118C775.558 38.667 975 246.226 975 500c0 262.16-212.84 475-475 475-262.16 0-475-212.84-475-475C25 246.226 224.442 38.667 475 25.648v.118a408.142 408.142 0 0 1 50 0Z" style="fill:#ebebeb;stroke:#000;stroke-width:.21px"/><path d="M475 125V25.232a1344.336 1344.336 0 0 1 50 0V125h-50ZM475 974.768V875h50v99.768a1344.336 1344.336 0 0 1-50 0ZM25.232 475.324H125v50H25.232a1344.336 1344.336 0 0 1 0-50ZM974.768 525H875v-50h99.768a1344.336 1344.336 0 0 1 0 50Z" style="fill:#b7b7b7;stroke:#000;stroke-width:.21px"/><path d="m531.524 500 148.307 230.315-44.621 28.733-148.307-230.315L531.524 500Z" style="stroke:#000;stroke-width:.21px"/><path d="m438.027 112.596 90.619 392.784-53.766 12.404L384.261 125l53.766-12.404Z" style="stroke:#000;stroke-width:.21px"/><circle cx="500" cy="500.324" r="39.676" style="fill:#b6253a;stroke:#000;stroke-width:.21px"/></svg>